# xmcd CD database file
#
# Track frame offsets:
#	150
#	21471
#	35269
#	57556
#	75317
#	79634
#	100762
#	120274
#	140726
#
# Disc length: 2073 seconds
#
# Revision: 0
# Processed by: cddbd v1.5.1PL0 Copyright (c) Steve Scherf et al.
# Submitted via: CDex 1.51
#
DISCID=69081709
DTITLE=Marcus Mitchell - Jumpin
DYEAR=2005
DGENRE=Jazz
TTITLE0=Jumpin
TTITLE1=Jam Session 101
TTITLE2=Special Someone
TTITLE3=Thursday Night at the Europa
TTITLE4=Interlude
TTITLE5=The Way She Walks
TTITLE6=Grove Signature
TTITLE7=Jam
TTITLE8=Empowerment
EXTD=YEAR: 2005
EXTT0=
EXTT1=
EXTT2=
EXTT3=
EXTT4=
EXTT5=
EXTT6=
EXTT7=
EXTT8=
PLAYORDER=
